<svg width="554" height="512" viewBox="0 0 554 512" fill="none" xmlns="http://www.w3.org/2000/svg">
<rect x="26.9999" width="512" height="512" rx="112" fill="#007BFF"/>
<path d="M174.817 379.041L175.297 354.046L175.057 354.041L174.817 354.041L174.817 379.041ZM275.825 380.98L275.345 405.975L309.357 406.628L299.823 373.973L275.825 380.98ZM229.311 221.668L219.343 198.741L199.138 207.525L205.313 228.675L229.311 221.668ZM511.376 118.312C516.437 105.466 510.126 90.9497 497.28 85.8888L287.939 3.4172C275.093 -1.64367 260.577 4.66757 255.516 17.5137C250.455 30.3599 256.766 44.8764 269.612 49.9373L455.693 123.245L382.385 309.326C377.324 322.172 383.635 336.689 396.481 341.749C409.327 346.81 423.844 340.499 428.905 327.653L511.376 118.312ZM27 404.041L174.817 404.041L174.817 354.041L27 354.041L27 404.041ZM174.337 404.037L275.345 405.975L276.304 355.984L175.297 354.046L174.337 404.037ZM299.823 373.973L253.309 214.661L205.313 228.675L251.827 387.986L299.823 373.973ZM239.278 244.595L498.084 132.076L478.149 86.222L219.343 198.741L239.278 244.595Z" fill="white" fill-opacity="0.5"/>
<path d="M133 217.636C127.818 217.636 123.364 216.97 119.636 215.636C115.909 214.333 112.803 212.606 110.318 210.455C107.864 208.333 105.909 206.061 104.454 203.636L113 197.636C113.97 198.909 115.197 200.364 116.682 202C118.167 203.667 120.197 205.106 122.773 206.318C125.379 207.561 128.788 208.182 133 208.182C138.636 208.182 143.288 206.818 146.954 204.091C150.621 201.364 152.454 197.091 152.454 191.273V177.091H151.545C150.758 178.364 149.636 179.939 148.182 181.818C146.758 183.667 144.697 185.318 142 186.773C139.333 188.197 135.727 188.909 131.182 188.909C125.545 188.909 120.485 187.576 116 184.909C111.545 182.242 108.015 178.364 105.409 173.273C102.833 168.182 101.545 162 101.545 154.727C101.545 147.576 102.803 141.348 105.318 136.045C107.833 130.712 111.333 126.591 115.818 123.682C120.303 120.742 125.485 119.273 131.364 119.273C135.909 119.273 139.515 120.03 142.182 121.545C144.879 123.03 146.939 124.727 148.364 126.636C149.818 128.515 150.939 130.061 151.727 131.273H152.818V120.182H163.182V192C163.182 198 161.818 202.879 159.091 206.636C156.394 210.424 152.758 213.197 148.182 214.955C143.636 216.742 138.576 217.636 133 217.636ZM132.636 179.273C136.939 179.273 140.576 178.288 143.545 176.318C146.515 174.348 148.773 171.515 150.318 167.818C151.864 164.121 152.636 159.697 152.636 154.545C152.636 149.515 151.879 145.076 150.364 141.227C148.848 137.379 146.606 134.364 143.636 132.182C140.667 130 137 128.909 132.636 128.909C128.091 128.909 124.303 130.061 121.273 132.364C118.273 134.667 116.015 137.758 114.5 141.636C113.015 145.515 112.273 149.818 112.273 154.545C112.273 159.394 113.03 163.682 114.545 167.409C116.091 171.106 118.364 174.015 121.364 176.136C124.394 178.227 128.151 179.273 132.636 179.273ZM211.182 191.455C204.879 191.455 199.348 189.955 194.591 186.955C189.864 183.955 186.167 179.758 183.5 174.364C180.864 168.97 179.545 162.667 179.545 155.455C179.545 148.182 180.864 141.833 183.5 136.409C186.167 130.985 189.864 126.773 194.591 123.773C199.348 120.773 204.879 119.273 211.182 119.273C217.485 119.273 223 120.773 227.727 123.773C232.485 126.773 236.182 130.985 238.818 136.409C241.485 141.833 242.818 148.182 242.818 155.455C242.818 162.667 241.485 168.97 238.818 174.364C236.182 179.758 232.485 183.955 227.727 186.955C223 189.955 217.485 191.455 211.182 191.455ZM211.182 181.818C215.97 181.818 219.909 180.591 223 178.136C226.091 175.682 228.379 172.455 229.864 168.455C231.348 164.455 232.091 160.121 232.091 155.455C232.091 150.788 231.348 146.439 229.864 142.409C228.379 138.379 226.091 135.121 223 132.636C219.909 130.152 215.97 128.909 211.182 128.909C206.394 128.909 202.454 130.152 199.364 132.636C196.273 135.121 193.985 138.379 192.5 142.409C191.015 146.439 190.273 150.788 190.273 155.455C190.273 160.121 191.015 164.455 192.5 168.455C193.985 172.455 196.273 175.682 199.364 178.136C202.454 180.591 206.394 181.818 211.182 181.818Z" fill="white" fill-opacity="0.5"/>
</svg>
